<svg width="1024" height="1024" viewBox="0 0 1024 1024" fill="none"
	xmlns="http://www.w3.org/2000/svg">
	<rect width="1024" height="1024" rx="256" fill="url(#paint0_linear_25_40)" />
	<rect x="28" y="28" width="968" height="968" rx="228" stroke="url(#paint1_linear_25_40)"
		stroke-opacity="0.3" stroke-width="56" />
	<path
		d="M442.182 256H302.545C290.201 256 278.362 260.904 269.633 269.633C260.904 278.362 256 290.201 256 302.545V442.182C256 454.526 260.904 466.365 269.633 475.094C278.362 483.823 290.201 488.727 302.545 488.727H442.182C454.526 488.727 466.365 483.823 475.094 475.094C483.823 466.365 488.727 454.526 488.727 442.182V302.545C488.727 290.201 483.823 278.362 475.094 269.633C466.365 260.904 454.526 256 442.182 256ZM442.182 442.182H302.545V302.545H442.182V442.182ZM721.455 256H581.818C569.474 256 557.635 260.904 548.906 269.633C540.177 278.362 535.273 290.201 535.273 302.545V442.182C535.273 454.526 540.177 466.365 548.906 475.094C557.635 483.823 569.474 488.727 581.818 488.727H721.455C733.799 488.727 745.638 483.823 754.367 475.094C763.096 466.365 768 454.526 768 442.182V302.545C768 290.201 763.096 278.362 754.367 269.633C745.638 260.904 733.799 256 721.455 256ZM721.455 442.182H581.818V302.545H721.455V442.182ZM442.182 535.273H302.545C290.201 535.273 278.362 540.177 269.633 548.906C260.904 557.635 256 569.474 256 581.818V721.455C256 733.799 260.904 745.638 269.633 754.367C278.362 763.096 290.201 768 302.545 768H442.182C454.526 768 466.365 763.096 475.094 754.367C483.823 745.638 488.727 733.799 488.727 721.455V581.818C488.727 569.474 483.823 557.635 475.094 548.906C466.365 540.177 454.526 535.273 442.182 535.273ZM442.182 721.455H302.545V581.818H442.182V721.455ZM721.455 535.273H581.818C569.474 535.273 557.635 540.177 548.906 548.906C540.177 557.635 535.273 569.474 535.273 581.818V721.455C535.273 733.799 540.177 745.638 548.906 754.367C557.635 763.096 569.474 768 581.818 768H721.455C733.799 768 745.638 763.096 754.367 754.367C763.096 745.638 768 733.799 768 721.455V581.818C768 569.474 763.096 557.635 754.367 548.906C745.638 540.177 733.799 535.273 721.455 535.273ZM721.455 721.455H581.818V581.818H721.455V721.455Z"
		fill="url(#paint2_linear_25_40)" />
	<path
		d="M442.182 446.182H446.182V442.182V302.545V298.545H442.182H302.545H298.545V302.545V442.182V446.182H302.545H442.182ZM721.455 446.182H725.455V442.182V302.545V298.545H721.455H581.818H577.818V302.545V442.182V446.182H581.818H721.455ZM442.182 725.455H446.182V721.455V581.818V577.818H442.182H302.545H298.545V581.818V721.455V725.455H302.545H442.182ZM721.455 725.455H725.455V721.455V581.818V577.818H721.455H581.818H577.818V581.818V721.455V725.455H581.818H721.455ZM302.545 260H442.182C453.466 260 464.287 264.482 472.266 272.461C480.245 280.44 484.727 291.262 484.727 302.545V442.182C484.727 453.466 480.245 464.287 472.266 472.266C464.287 480.245 453.466 484.727 442.182 484.727H302.545C291.262 484.727 280.44 480.245 272.461 472.266C264.482 464.287 260 453.466 260 442.182V302.545C260 291.262 264.482 280.44 272.461 272.461C280.44 264.482 291.262 260 302.545 260ZM581.818 260H721.455C732.738 260 743.56 264.482 751.539 272.461C759.518 280.44 764 291.262 764 302.545V442.182C764 453.466 759.518 464.287 751.539 472.266C743.56 480.245 732.738 484.727 721.455 484.727H581.818C570.534 484.727 559.713 480.245 551.734 472.266C543.755 464.287 539.273 453.466 539.273 442.182V302.545C539.273 291.262 543.755 280.44 551.734 272.461C559.713 264.482 570.534 260 581.818 260ZM302.545 539.273H442.182C453.466 539.273 464.287 543.755 472.266 551.734C480.245 559.713 484.727 570.534 484.727 581.818V721.455C484.727 732.738 480.245 743.56 472.266 751.539C464.287 759.518 453.466 764 442.182 764H302.545C291.262 764 280.44 759.518 272.461 751.539C264.482 743.56 260 732.738 260 721.455V581.818C260 570.534 264.482 559.713 272.461 551.734C280.44 543.755 291.262 539.273 302.545 539.273ZM581.818 539.273H721.455C732.738 539.273 743.56 543.755 751.539 551.734C759.518 559.713 764 570.534 764 581.818V721.455C764 732.738 759.518 743.56 751.539 751.539C743.56 759.518 732.738 764 721.455 764H581.818C570.534 764 559.713 759.518 551.734 751.539C543.755 743.56 539.273 732.738 539.273 721.455V581.818C539.273 570.534 543.755 559.713 551.734 551.734C559.713 543.755 570.534 539.273 581.818 539.273Z"
		stroke="white" stroke-opacity="0.3" stroke-width="8" />
	<defs>
		<linearGradient id="paint0_linear_25_40" x1="276.716" y1="1.57191e-05" x2="747.284"
			y2="1024" gradientUnits="userSpaceOnUse">
			<stop stop-color="#4E90E7" />
			<stop offset="1" stop-color="#002454" />
		</linearGradient>
		<linearGradient id="paint1_linear_25_40" x1="0" y1="0" x2="1024" y2="1024"
			gradientUnits="userSpaceOnUse">
			<stop stop-color="white" />
			<stop offset="1" stop-color="#999999" />
		</linearGradient>
		<linearGradient id="paint2_linear_25_40" x1="256.908" y1="257.211" x2="750.31" y2="792.094"
			gradientUnits="userSpaceOnUse">
			<stop offset="0.4375" stop-color="white" />
			<stop offset="1" stop-color="#0051BE" />
		</linearGradient>
	</defs>
</svg>