<svg width="939" height="204" viewBox="0 0 939 204" fill="none" xmlns="http://www.w3.org/2000/svg">
	<path
		d="M67.2843 0L19.9265 27.4133L67.2843 54.826V109.652L114.642 137.065L94.7156 149.173L47.3578 121.761V66.9347L0 39.5214V149.173L94.7156 204C116.838 190.308 139.489 177.51 162 164.479V109.652L114.642 82.2393V27.4133L67.2843 0Z"
		fill="white" />
	<path
		d="M277.78 152H213.057V52.9341H233.399V134.234H277.78V152ZM347.523 152H331.012L330.021 144.141C327.6 147.047 324.606 149.314 321.039 150.943C317.473 152.528 313.554 153.321 309.283 153.321C304.66 153.321 300.544 152.44 296.933 150.679C293.323 148.874 290.483 146.408 288.413 143.282C286.344 140.112 285.309 136.524 285.309 132.517C285.309 128.29 286.432 124.57 288.678 121.356C290.923 118.141 294.005 115.632 297.924 113.827C301.886 111.977 306.377 111.053 311.397 111.053C314.347 111.053 317.297 111.383 320.247 112.043C323.241 112.704 326.015 113.628 328.568 114.817V113.1C328.568 110.458 327.82 108.191 326.323 106.298C324.87 104.36 322.844 102.863 320.247 101.807C317.693 100.75 314.831 100.222 311.661 100.222C308.623 100.222 305.607 100.706 302.613 101.675C299.663 102.643 296.933 104.096 294.423 106.033L289.272 91.5698C293.719 89.2803 298.21 87.5631 302.745 86.4184C307.324 85.2296 311.749 84.6352 316.02 84.6352C322.448 84.6352 328.018 85.912 332.729 88.4657C337.44 90.9754 341.073 94.5418 343.626 99.1649C346.224 103.744 347.523 109.182 347.523 115.478V152ZM313.444 138.725C315.954 138.725 318.353 138.175 320.643 137.074C322.932 135.973 324.782 134.476 326.191 132.583C327.644 130.69 328.414 128.598 328.502 126.309V125.847C326.565 124.526 324.407 123.513 322.03 122.809C319.696 122.06 317.319 121.686 314.897 121.686C311.287 121.686 308.337 122.478 306.047 124.063C303.758 125.648 302.613 127.696 302.613 130.206C302.613 131.835 303.075 133.31 304 134.63C304.969 135.907 306.267 136.92 307.896 137.668C309.526 138.373 311.375 138.725 313.444 138.725ZM426.908 152H411.519L410.859 141.433C408.525 145.308 405.421 148.258 401.547 150.283C397.716 152.308 393.225 153.321 388.074 153.321C379.62 153.321 372.994 150.723 368.195 145.528C363.395 140.332 360.996 133.199 360.996 124.129V85.9561H379.95V119.771C379.95 124.922 381.161 128.973 383.583 131.923C386.048 134.829 389.395 136.282 393.621 136.282C398.024 136.282 401.503 134.763 404.056 131.725C406.654 128.642 407.953 124.482 407.953 119.242V85.9561H426.908V152ZM508.934 152H489.98V117.657C489.98 112.638 488.791 108.719 486.413 105.901C484.08 103.083 480.844 101.675 476.705 101.675C473.799 101.675 471.223 102.379 468.978 103.788C466.776 105.153 465.059 107.112 463.826 109.666C462.593 112.176 461.977 115.192 461.977 118.714V152H443.022V85.9561H458.345L459.005 96.5231C461.383 92.6485 464.553 89.6986 468.515 87.6732C472.478 85.6479 477.057 84.6352 482.252 84.6352C490.53 84.6352 497.046 87.1889 501.801 92.2963C506.557 97.3597 508.934 104.316 508.934 113.166V152ZM582.243 141.499C579.029 145.197 575.088 148.103 570.421 150.217C565.754 152.286 560.625 153.321 555.033 153.321C548.252 153.321 542.176 151.846 536.805 148.896C531.477 145.902 527.272 141.807 524.19 136.612C521.152 131.416 519.633 125.538 519.633 118.978C519.633 112.374 521.152 106.496 524.19 101.344C527.272 96.1488 531.477 92.0761 536.805 89.1262C542.176 86.1322 548.252 84.6352 555.033 84.6352C560.581 84.6352 565.688 85.6699 570.355 87.7393C575.022 89.8086 578.963 92.6705 582.177 96.325L571.015 108.015C569.298 106.033 567.119 104.492 564.477 103.392C561.879 102.247 559.15 101.675 556.288 101.675C552.985 101.675 550.036 102.423 547.438 103.92C544.84 105.373 542.793 107.398 541.296 109.996C539.799 112.55 539.05 115.5 539.05 118.846C539.05 122.236 539.799 125.252 541.296 127.894C542.793 130.536 544.84 132.605 547.438 134.102C550.036 135.555 552.985 136.282 556.288 136.282C559.15 136.282 561.901 135.731 564.543 134.63C567.185 133.486 569.342 131.923 571.015 129.941L582.243 141.499ZM593.867 152V52.9341H612.821V93.7492C617.576 87.6732 624.401 84.6352 633.295 84.6352C641.616 84.6352 648.111 87.2109 652.778 92.3623C657.445 97.4697 659.779 104.624 659.779 113.827V152H640.824V118.846C640.824 113.342 639.613 109.093 637.192 106.099C634.77 103.105 631.38 101.608 627.021 101.608C622.574 101.608 619.095 103.127 616.586 106.166C614.076 109.204 612.821 113.43 612.821 118.846V152H593.867ZM674.572 152V52.9341H708.453C716.774 52.9341 723.951 54.299 729.983 57.0288C736.059 59.7146 740.726 63.5672 743.985 68.5865C747.243 73.5618 748.872 79.5058 748.872 86.4184C748.872 93.331 747.243 99.319 743.985 104.382C740.726 109.402 736.081 113.276 730.049 116.006C724.061 118.736 716.929 120.101 708.651 120.101H694.914V152H674.572ZM694.914 102.269H706.538C713.45 102.269 718.756 100.904 722.454 98.1742C726.197 95.4003 728.068 91.4817 728.068 86.4184C728.068 81.4431 726.197 77.5905 722.454 74.8607C718.756 72.0868 713.45 70.6999 706.538 70.6999H694.914V102.269ZM788.63 153.321C781.85 153.321 775.774 151.846 770.402 148.896C765.031 145.902 760.804 141.829 757.722 136.678C754.684 131.482 753.165 125.582 753.165 118.978C753.165 112.418 754.684 106.562 757.722 101.41C760.804 96.2149 765.031 92.1202 770.402 89.1262C775.774 86.1322 781.85 84.6352 788.63 84.6352C795.411 84.6352 801.443 86.1322 806.726 89.1262C812.054 92.1202 816.237 96.2149 819.275 101.41C822.357 106.562 823.898 112.418 823.898 118.978C823.898 125.582 822.357 131.482 819.275 136.678C816.237 141.829 812.054 145.902 806.726 148.896C801.443 151.846 795.411 153.321 788.63 153.321ZM788.564 136.348C791.602 136.348 794.31 135.599 796.688 134.102C799.109 132.561 801.002 130.492 802.367 127.894C803.776 125.252 804.481 122.258 804.481 118.912C804.481 115.61 803.776 112.66 802.367 110.062C801.002 107.464 799.109 105.417 796.688 103.92C794.31 102.379 791.602 101.608 788.564 101.608C785.482 101.608 782.73 102.379 780.309 103.92C777.931 105.417 776.038 107.464 774.629 110.062C773.264 112.66 772.582 115.61 772.582 118.912C772.582 122.258 773.264 125.252 774.629 127.894C776.038 130.492 777.931 132.561 780.309 134.102C782.73 135.599 785.482 136.348 788.564 136.348ZM854.938 152H835.984V85.9561H852.495L853.155 97.3817C855.357 93.375 858.351 90.2489 862.137 88.0034C865.924 85.7579 870.261 84.6352 875.148 84.6352C876.557 84.6352 877.966 84.7453 879.375 84.9654C880.828 85.1415 882.303 85.4277 883.8 85.824L881.422 102.863C878.516 102.027 875.764 101.608 873.166 101.608C869.512 101.608 866.298 102.445 863.524 104.118C860.794 105.747 858.681 108.037 857.184 110.987C855.687 113.893 854.938 117.305 854.938 121.224V152ZM938.682 150.283C933.619 152.308 928.709 153.321 923.954 153.321C919.023 153.321 914.664 152.286 910.878 150.217C907.135 148.103 904.207 145.175 902.094 141.433C899.98 137.646 898.924 133.288 898.924 128.356V102.863H887.366V85.9561H899.914V69.4451H917.878V85.9561H936.172V102.863H917.878V124.922C917.878 128.532 918.869 131.35 920.85 133.376C922.832 135.357 925.297 136.348 928.247 136.348C930.933 136.348 933.553 135.511 936.106 133.838L938.682 150.283Z"
		fill="white" />
</svg>