<svg width="1024" height="1024" viewBox="0 0 1024 1024" fill="none"
	xmlns="http://www.w3.org/2000/svg">
	<path
		d="M454.325 84.8098L256.136 199.621L454.325 314.429V544.048L652.514 658.858L569.123 709.568L370.934 594.76V365.142L172.745 250.331V709.568L569.123 939.19C661.702 881.847 756.495 828.244 850.703 773.669V544.048L652.514 429.24V199.621L454.325 84.8098Z"
		fill="white" />
	<path fill-rule="evenodd" clip-rule="evenodd"
		d="M411.87 11.4102C438.132 -3.80341 470.518 -3.80341 496.78 11.4102L694.969 126.221C721.143 141.383 737.259 169.355 737.259 199.621V380.338L893.158 470.648C919.332 485.81 935.448 513.782 935.448 544.048V773.669C935.448 803.935 919.332 831.906 893.159 847.069C873.304 858.571 853.546 869.96 833.881 881.296C759.215 924.337 685.892 966.603 613.722 1011.31C587.159 1027.76 553.705 1028.25 526.668 1012.59L130.29 782.968C104.116 767.806 88 739.834 88 709.568V250.331C88 220.014 104.17 192.003 130.414 176.859C145.222 168.314 161.967 164.6 178.458 165.714C185.574 149.39 197.769 135.439 213.681 126.221L411.87 11.4102ZM172.745 250.331L370.934 365.142V594.76L569.123 709.568L652.514 658.858L454.325 544.048V314.429L256.136 199.621L454.325 84.8098L652.514 199.621V429.24L850.703 544.048V773.669C831.211 784.961 811.693 796.212 792.174 807.463C717.362 850.587 642.546 893.712 569.123 939.19L172.745 709.568V250.331Z"
		fill="black" />
</svg>