<svg width="726" height="102" viewBox="0 0 726 102" fill="none" xmlns="http://www.w3.org/2000/svg">
	<path
		d="M64.7804 100H0.0573602V0.934096H20.3989V82.2342H64.7804V100ZM134.523 100H118.012L117.021 92.1408C114.6 95.0467 111.606 97.3142 108.039 98.9433C104.473 100.528 100.554 101.321 96.2834 101.321C91.6603 101.321 87.5436 100.44 83.9332 98.6791C80.3228 96.8739 77.4829 94.4083 75.4135 91.2822C73.3441 88.1121 72.3094 84.5237 72.3094 80.517C72.3094 76.2902 73.4322 72.5698 75.6777 69.3556C77.9232 66.1415 81.0052 63.6318 84.9238 61.8266C88.8865 59.9774 93.3774 59.0528 98.3968 59.0528C101.347 59.0528 104.297 59.383 107.247 60.0434C110.241 60.7039 113.015 61.6285 115.568 62.8173V61.1001C115.568 58.4584 114.82 56.1909 113.323 54.2976C111.87 52.3603 109.844 50.8633 107.247 49.8066C104.693 48.7499 101.831 48.2216 98.661 48.2216C95.6229 48.2216 92.6069 48.7059 89.6129 49.6745C86.663 50.6432 83.9332 52.0961 81.4235 54.0334L76.2721 39.5698C80.719 37.2803 85.21 35.5631 89.745 34.4184C94.3241 33.2296 98.749 32.6352 103.02 32.6352C109.448 32.6352 115.018 33.912 119.729 36.4657C124.44 38.9754 128.073 42.5418 130.626 47.1649C133.224 51.7439 134.523 57.1815 134.523 63.4777V100ZM100.444 86.7252C102.954 86.7252 105.353 86.1748 107.643 85.0741C109.932 83.9733 111.782 82.4763 113.191 80.5831C114.644 78.6898 115.414 76.5984 115.502 74.3089V73.8466C113.565 72.5257 111.407 71.513 109.03 70.8086C106.696 70.0601 104.319 69.6858 101.897 69.6858C98.2867 69.6858 95.3367 70.4784 93.0472 72.0634C90.7577 73.6485 89.6129 75.6958 89.6129 78.2055C89.6129 79.8346 90.0752 81.3096 90.9999 82.6304C91.9685 83.9073 93.2674 84.92 94.8964 85.6685C96.5255 86.3729 98.3748 86.7252 100.444 86.7252ZM213.908 100H198.519L197.859 89.433C195.525 93.3075 192.421 96.2575 188.547 98.2829C184.716 100.308 180.225 101.321 175.074 101.321C166.62 101.321 159.994 98.7232 155.195 93.5277C150.395 88.3322 147.996 81.1995 147.996 72.1295V33.9561H166.95V67.7706C166.95 72.922 168.161 76.9727 170.583 79.9226C173.048 82.8286 176.395 84.2815 180.621 84.2815C185.024 84.2815 188.503 82.7625 191.056 79.7245C193.654 76.6425 194.953 72.4817 194.953 67.2422V33.9561H213.908V100ZM295.934 100H276.98V65.6572C276.98 60.6378 275.791 56.7192 273.413 53.9013C271.08 51.0835 267.844 49.6745 263.705 49.6745C260.799 49.6745 258.223 50.379 255.978 51.7879C253.776 53.1528 252.059 55.1121 250.826 57.6658C249.593 60.1755 248.977 63.1915 248.977 66.7139V100H230.022V33.9561H245.345L246.005 44.5231C248.383 40.6485 251.553 37.6986 255.515 35.6732C259.478 33.6479 264.057 32.6352 269.252 32.6352C277.53 32.6352 284.046 35.1889 288.801 40.2963C293.557 45.3597 295.934 52.3163 295.934 61.1662V100ZM369.243 89.499C366.029 93.1975 362.088 96.1034 357.421 98.2168C352.754 100.286 347.625 101.321 342.033 101.321C335.252 101.321 329.176 99.8459 323.805 96.8959C318.477 93.9019 314.272 89.8072 311.19 84.6118C308.152 79.4163 306.633 73.5384 306.633 66.978C306.633 60.3736 308.152 54.4957 311.19 49.3443C314.272 44.1488 318.477 40.0761 323.805 37.1262C329.176 34.1322 335.252 32.6352 342.033 32.6352C347.581 32.6352 352.688 33.6699 357.355 35.7393C362.022 37.8086 365.963 40.6705 369.177 44.325L358.015 56.0147C356.298 54.0334 354.119 52.4924 351.477 51.3917C348.879 50.2469 346.15 49.6745 343.288 49.6745C339.985 49.6745 337.036 50.423 334.438 51.92C331.84 53.373 329.793 55.3983 328.296 57.9961C326.799 60.5498 326.05 63.4997 326.05 66.8459C326.05 70.2362 326.799 73.2522 328.296 75.894C329.793 78.5357 331.84 80.6051 334.438 82.1021C337.036 83.5551 339.985 84.2815 343.288 84.2815C346.15 84.2815 348.901 83.7312 351.543 82.6304C354.185 81.4857 356.342 79.9226 358.015 77.9413L369.243 89.499ZM380.867 100V0.934096H399.821V41.7492C404.576 35.6732 411.401 32.6352 420.295 32.6352C428.616 32.6352 435.111 35.2109 439.778 40.3623C444.445 45.4697 446.779 52.6245 446.779 61.8266V100H427.824V66.8459C427.824 61.3423 426.613 57.0935 424.192 54.0995C421.77 51.1055 418.38 49.6085 414.021 49.6085C409.574 49.6085 406.095 51.1275 403.586 54.1655C401.076 57.2035 399.821 61.4303 399.821 66.8459V100H380.867ZM461.572 100V0.934096H495.453C503.774 0.934096 510.951 2.299 516.983 5.02882C523.059 7.71461 527.726 11.5672 530.985 16.5865C534.243 21.5618 535.872 27.5058 535.872 34.4184C535.872 41.331 534.243 47.319 530.985 52.3823C527.726 57.4017 523.081 61.2762 517.049 64.0061C511.061 66.7359 503.929 68.1008 495.651 68.1008H481.914V100H461.572ZM481.914 50.2689H493.538C500.45 50.2689 505.756 48.904 509.454 46.1742C513.197 43.4003 515.068 39.4817 515.068 34.4184C515.068 29.4431 513.197 25.5905 509.454 22.8607C505.756 20.0868 500.45 18.6999 493.538 18.6999H481.914V50.2689ZM575.63 101.321C568.85 101.321 562.774 99.8459 557.402 96.8959C552.031 93.9019 547.804 89.8292 544.722 84.6778C541.684 79.4824 540.165 73.5824 540.165 66.978C540.165 60.4177 541.684 54.5618 544.722 49.4103C547.804 44.2149 552.031 40.1202 557.402 37.1262C562.774 34.1322 568.85 32.6352 575.63 32.6352C582.411 32.6352 588.443 34.1322 593.726 37.1262C599.054 40.1202 603.237 44.2149 606.275 49.4103C609.357 54.5618 610.898 60.4177 610.898 66.978C610.898 73.5824 609.357 79.4824 606.275 84.6778C603.237 89.8292 599.054 93.9019 593.726 96.8959C588.443 99.8459 582.411 101.321 575.63 101.321ZM575.564 84.3476C578.602 84.3476 581.31 83.5991 583.688 82.1021C586.109 80.5611 588.002 78.4917 589.367 75.894C590.776 73.2522 591.481 70.2582 591.481 66.912C591.481 63.6098 590.776 60.6598 589.367 58.0621C588.002 55.4644 586.109 53.417 583.688 51.92C581.31 50.379 578.602 49.6085 575.564 49.6085C572.482 49.6085 569.73 50.379 567.309 51.92C564.931 53.417 563.038 55.4644 561.629 58.0621C560.264 60.6598 559.582 63.6098 559.582 66.912C559.582 70.2582 560.264 73.2522 561.629 75.894C563.038 78.4917 564.931 80.5611 567.309 82.1021C569.73 83.5991 572.482 84.3476 575.564 84.3476ZM641.938 100H622.984V33.9561H639.495L640.155 45.3817C642.357 41.375 645.351 38.2489 649.137 36.0034C652.924 33.7579 657.261 32.6352 662.148 32.6352C663.557 32.6352 664.966 32.7453 666.375 32.9654C667.828 33.1415 669.303 33.4277 670.8 33.824L668.422 50.8633C665.516 50.0268 662.764 49.6085 660.166 49.6085C656.512 49.6085 653.298 50.445 650.524 52.1181C647.794 53.7472 645.681 56.0368 644.184 58.9867C642.687 61.8926 641.938 65.3049 641.938 69.2235V100ZM725.682 98.2829C720.619 100.308 715.709 101.321 710.954 101.321C706.023 101.321 701.664 100.286 697.878 98.2168C694.135 96.1034 691.207 93.1755 689.094 89.433C686.98 85.6465 685.924 81.2876 685.924 76.3563V50.8633H674.366V33.9561H686.914V17.4451H704.878V33.9561H723.172V50.8633H704.878V72.922C704.878 76.5324 705.869 79.3503 707.85 81.3756C709.832 83.3569 712.297 84.3476 715.247 84.3476C717.933 84.3476 720.553 83.511 723.106 81.8379L725.682 98.2829Z"
		fill="white" />
</svg>