<svg width="1024" height="1024" viewBox="0 0 1024 1024" fill="none"
	xmlns="http://www.w3.org/2000/svg">
	<rect width="1024" height="1024" rx="256" fill="url(#paint0_linear_24_2)" />
	<rect x="28" y="28" width="968" height="968" rx="228" stroke="url(#paint1_linear_24_2)"
		stroke-opacity="0.3" stroke-width="56" />
	<path
		d="M841.929 468.68C826.751 458.513 786.877 454.175 757.892 461.946C756.336 433.224 741.432 409.017 714.198 387.893L704.118 381.164L697.398 391.264C684.192 411.204 678.621 437.783 680.593 461.946C682.15 476.836 687.349 493.563 697.398 505.704C659.673 527.477 624.887 522.533 470.86 522.533H233.053C232.363 557.136 237.951 623.683 280.491 677.858C285.195 683.845 290.341 689.633 295.939 695.209C330.529 729.666 382.791 754.934 460.939 755C580.163 755.11 682.304 690.998 744.443 536.004C764.886 536.331 818.864 539.649 845.28 488.875C845.925 488.022 852 475.417 852 475.417L841.929 468.689V468.68ZM388.251 437.041H321.378V503.561H388.251V437.041ZM474.631 437.041H407.762V503.561H474.631V437.041ZM561.024 437.041H494.155V503.561H561.024V437.041ZM647.422 437.041H580.548V503.561H647.422V437.041ZM301.854 437.041H234.985V503.561H301.854V437.041ZM388.251 353.025H321.378V419.545H388.251V353.025ZM474.631 353.025H407.762V419.545H474.631V353.025ZM561.024 353.025H494.155V419.545H561.024V353.025ZM561.024 269H494.155V335.52H561.024V269Z"
		fill="url(#paint2_linear_24_2)" />
	<path
		d="M705.229 386.715L711.858 391.141C738.374 411.741 752.423 434.94 753.898 462.163L754.165 467.087L758.928 465.81C772.864 462.073 789.591 461.218 804.732 462.57C819.637 463.902 832.31 467.312 839.181 471.663L839.706 472.014L846.882 476.808C846.403 477.793 845.852 478.922 845.291 480.064C844.494 481.688 843.683 483.325 843.035 484.603C842.71 485.244 842.434 485.777 842.226 486.166C842.09 486.421 842.018 486.546 841.996 486.585L841.887 486.73L841.731 487.029C817.58 533.449 769.344 532.493 747.078 532.052C746.177 532.034 745.319 532.017 744.507 532.004L741.755 531.96L740.73 534.515C709.87 611.492 669.201 665.593 621.731 700.442C574.289 735.27 519.801 751.054 460.943 751C383.74 750.934 332.528 726.011 298.762 692.375C293.277 686.911 288.239 681.245 283.637 675.388C243.478 624.244 236.83 561.671 237.003 526.533H470.86C497.906 526.533 521.31 526.686 541.714 526.82C579.28 527.066 606.68 527.245 627.924 526.279C660.914 524.779 679.76 520.502 699.398 509.168L703.499 506.801L700.479 503.154C691.103 491.825 686.087 475.961 684.576 461.576C682.676 438.17 688.107 412.538 700.732 393.475C700.732 393.474 700.733 393.474 700.733 393.473L705.229 386.715ZM325.378 499.561V441.041H384.251V499.561H325.378ZM411.762 499.561V441.041H470.631V499.561H411.762ZM498.155 499.561V441.041H557.024V499.561H498.155ZM584.548 499.561V441.041H643.422V499.561H584.548ZM238.985 499.561V441.041H297.854V499.561H238.985ZM325.378 415.545V357.025H384.251V415.545H325.378ZM411.762 415.545V357.025H470.631V415.545H411.762ZM498.155 415.545V357.025H557.024V415.545H498.155ZM498.155 331.52V273H557.024V331.52H498.155Z"
		stroke="white" stroke-opacity="0.3" stroke-width="8" />
	<defs>
		<linearGradient id="paint0_linear_24_2" x1="276.716" y1="1.57191e-05" x2="747.284" y2="1024"
			gradientUnits="userSpaceOnUse">
			<stop />
			<stop offset="1" stop-color="#002454" />
		</linearGradient>
		<linearGradient id="paint1_linear_24_2" x1="0" y1="0" x2="1024" y2="1024"
			gradientUnits="userSpaceOnUse">
			<stop stop-color="white" />
			<stop offset="1" stop-color="#999999" />
		</linearGradient>
		<linearGradient id="paint2_linear_24_2" x1="234.097" y1="270.149" x2="680.536" y2="886.564"
			gradientUnits="userSpaceOnUse">
			<stop offset="0.4375" stop-color="white" />
			<stop offset="1" stop-color="#0051BE" />
		</linearGradient>
	</defs>
</svg>